<mxfile host="app.diagrams.net" agent="Mozilla/5.0 (Windows NT 10.0; Win64; x64) AppleWebKit/537.36 (KHTML, like Gecko) Chrome/129.0.0.0 Safari/537.36" version="24.8.0">
  <diagram name="Страница — 1" id="yYk7vNQFQE3MoNVvX0nF">
    <mxGraphModel dx="1430" dy="763" grid="1" gridSize="10" guides="1" tooltips="1" connect="1" arrows="1" fold="1" page="1" pageScale="1" pageWidth="827" pageHeight="1169" math="0" shadow="0">
      <root>
        <mxCell id="0" />
        <mxCell id="1" parent="0" />
        <mxCell id="rN-BCJs0_UWR_dfT9ukz-1" value="" style="shape=flexArrow;endArrow=classic;html=1;rounded=0;" edge="1" parent="1">
          <mxGeometry width="50" height="50" relative="1" as="geometry">
            <mxPoint x="400" y="110" as="sourcePoint" />
            <mxPoint x="400" y="170" as="targetPoint" />
          </mxGeometry>
        </mxCell>
        <mxCell id="rN-BCJs0_UWR_dfT9ukz-2" value="*Старт*" style="text;html=1;align=center;verticalAlign=middle;whiteSpace=wrap;rounded=0;" vertex="1" parent="1">
          <mxGeometry x="410" y="120" width="60" height="30" as="geometry" />
        </mxCell>
        <mxCell id="rN-BCJs0_UWR_dfT9ukz-3" value="Получение списка продуктов" style="rounded=1;whiteSpace=wrap;html=1;" vertex="1" parent="1">
          <mxGeometry x="340" y="170" width="120" height="60" as="geometry" />
        </mxCell>
        <mxCell id="rN-BCJs0_UWR_dfT9ukz-4" value="" style="endArrow=classic;html=1;rounded=0;" edge="1" parent="1" source="rN-BCJs0_UWR_dfT9ukz-3">
          <mxGeometry width="50" height="50" relative="1" as="geometry">
            <mxPoint x="390" y="280" as="sourcePoint" />
            <mxPoint x="400" y="280" as="targetPoint" />
          </mxGeometry>
        </mxCell>
        <mxCell id="rN-BCJs0_UWR_dfT9ukz-5" value="" style="endArrow=none;html=1;rounded=0;" edge="1" parent="1">
          <mxGeometry width="50" height="50" relative="1" as="geometry">
            <mxPoint x="302.5" y="280" as="sourcePoint" />
            <mxPoint x="497.5" y="280" as="targetPoint" />
          </mxGeometry>
        </mxCell>
        <mxCell id="rN-BCJs0_UWR_dfT9ukz-7" value="" style="endArrow=classic;html=1;rounded=0;" edge="1" parent="1" target="rN-BCJs0_UWR_dfT9ukz-9">
          <mxGeometry width="50" height="50" relative="1" as="geometry">
            <mxPoint x="310" y="280" as="sourcePoint" />
            <mxPoint x="310" y="350" as="targetPoint" />
          </mxGeometry>
        </mxCell>
        <mxCell id="rN-BCJs0_UWR_dfT9ukz-8" value="" style="endArrow=classic;html=1;rounded=0;" edge="1" parent="1" target="rN-BCJs0_UWR_dfT9ukz-10">
          <mxGeometry width="50" height="50" relative="1" as="geometry">
            <mxPoint x="490" y="280" as="sourcePoint" />
            <mxPoint x="490" y="350" as="targetPoint" />
          </mxGeometry>
        </mxCell>
        <mxCell id="rN-BCJs0_UWR_dfT9ukz-9" value="Выбор продуктов" style="rounded=1;whiteSpace=wrap;html=1;" vertex="1" parent="1">
          <mxGeometry x="250" y="360" width="120" height="60" as="geometry" />
        </mxCell>
        <mxCell id="rN-BCJs0_UWR_dfT9ukz-10" value="Сравнение цен" style="rounded=1;whiteSpace=wrap;html=1;" vertex="1" parent="1">
          <mxGeometry x="430" y="360" width="120" height="60" as="geometry" />
        </mxCell>
        <mxCell id="rN-BCJs0_UWR_dfT9ukz-11" value="" style="endArrow=classic;html=1;rounded=0;" edge="1" parent="1">
          <mxGeometry width="50" height="50" relative="1" as="geometry">
            <mxPoint x="309.66" y="420" as="sourcePoint" />
            <mxPoint x="309.66" y="500" as="targetPoint" />
          </mxGeometry>
        </mxCell>
        <mxCell id="rN-BCJs0_UWR_dfT9ukz-12" value="" style="endArrow=classic;html=1;rounded=0;" edge="1" parent="1">
          <mxGeometry width="50" height="50" relative="1" as="geometry">
            <mxPoint x="489.65999999999997" y="420" as="sourcePoint" />
            <mxPoint x="489.65999999999997" y="500" as="targetPoint" />
          </mxGeometry>
        </mxCell>
        <mxCell id="rN-BCJs0_UWR_dfT9ukz-13" value="" style="endArrow=none;html=1;rounded=0;" edge="1" parent="1">
          <mxGeometry width="50" height="50" relative="1" as="geometry">
            <mxPoint x="302.5" y="500" as="sourcePoint" />
            <mxPoint x="497.5" y="500" as="targetPoint" />
          </mxGeometry>
        </mxCell>
        <mxCell id="rN-BCJs0_UWR_dfT9ukz-14" value="" style="endArrow=classic;html=1;rounded=0;" edge="1" parent="1" target="rN-BCJs0_UWR_dfT9ukz-15">
          <mxGeometry width="50" height="50" relative="1" as="geometry">
            <mxPoint x="399.66" y="500" as="sourcePoint" />
            <mxPoint x="399.66" y="550" as="targetPoint" />
            <Array as="points">
              <mxPoint x="400" y="520" />
            </Array>
          </mxGeometry>
        </mxCell>
        <mxCell id="rN-BCJs0_UWR_dfT9ukz-15" value="Проверка наличия всех продуктов из списка" style="rounded=1;whiteSpace=wrap;html=1;" vertex="1" parent="1">
          <mxGeometry x="340" y="550" width="120" height="60" as="geometry" />
        </mxCell>
        <mxCell id="rN-BCJs0_UWR_dfT9ukz-16" value="Оплата на кассе" style="rounded=1;whiteSpace=wrap;html=1;" vertex="1" parent="1">
          <mxGeometry x="340" y="650" width="120" height="60" as="geometry" />
        </mxCell>
        <mxCell id="rN-BCJs0_UWR_dfT9ukz-17" value="Упаковка покупок" style="rounded=1;whiteSpace=wrap;html=1;" vertex="1" parent="1">
          <mxGeometry x="340" y="750" width="120" height="60" as="geometry" />
        </mxCell>
        <mxCell id="rN-BCJs0_UWR_dfT9ukz-18" value="" style="endArrow=classic;html=1;rounded=0;" edge="1" parent="1" source="rN-BCJs0_UWR_dfT9ukz-15" target="rN-BCJs0_UWR_dfT9ukz-16">
          <mxGeometry width="50" height="50" relative="1" as="geometry">
            <mxPoint x="390" y="690" as="sourcePoint" />
            <mxPoint x="440" y="640" as="targetPoint" />
          </mxGeometry>
        </mxCell>
        <mxCell id="rN-BCJs0_UWR_dfT9ukz-19" value="" style="endArrow=classic;html=1;rounded=0;" edge="1" parent="1" source="rN-BCJs0_UWR_dfT9ukz-16" target="rN-BCJs0_UWR_dfT9ukz-17">
          <mxGeometry width="50" height="50" relative="1" as="geometry">
            <mxPoint x="530" y="690" as="sourcePoint" />
            <mxPoint x="530" y="730" as="targetPoint" />
          </mxGeometry>
        </mxCell>
        <mxCell id="rN-BCJs0_UWR_dfT9ukz-24" value="Завершение процесса" style="rounded=1;whiteSpace=wrap;html=1;" vertex="1" parent="1">
          <mxGeometry x="520" y="750" width="120" height="60" as="geometry" />
        </mxCell>
        <mxCell id="rN-BCJs0_UWR_dfT9ukz-25" value="" style="endArrow=classic;html=1;rounded=0;" edge="1" parent="1" source="rN-BCJs0_UWR_dfT9ukz-17" target="rN-BCJs0_UWR_dfT9ukz-24">
          <mxGeometry width="50" height="50" relative="1" as="geometry">
            <mxPoint x="390" y="690" as="sourcePoint" />
            <mxPoint x="440" y="640" as="targetPoint" />
          </mxGeometry>
        </mxCell>
      </root>
    </mxGraphModel>
  </diagram>
</mxfile>
